HIERARCHY
ROOT Hips
{
	OFFSET -3.958830 18.904000 13.208200
	CHANNELS 6 Xposition Yposition Zposition Zrotation Yrotation Xrotation 
	JOINT LHipJoint
	{
		OFFSET 0.000000 0.000000 0.000000
		CHANNELS 3 Zrotation Yrotation Xrotation
		JOINT LeftUpLeg
		{
			OFFSET 1.800000 -1.400000 0.085000
			CHANNELS 3 Zrotation Yrotation Xrotation
			JOINT LeftLeg
			{
				OFFSET 2.215000 -6.000000 0.000000
				CHANNELS 3 Zrotation Yrotation Xrotation
				JOINT LeftFoot
				{
					OFFSET 2.500000 -6.900000 0.000000
					CHANNELS 3 Zrotation Yrotation Xrotation
					JOINT LeftToeBase
					{
						OFFSET 0.200000 -0.500000 1.950000
						CHANNELS 3 Zrotation Yrotation Xrotation
						End Site
						{
							OFFSET 0.000000 0.000000 0.000000
						}
					}
				}
			}
		}
	}
	JOINT RHipJoint
	{
		OFFSET 0.000000 0.000000 0.000000
		CHANNELS 3 Zrotation Yrotation Xrotation
		JOINT RightUpLeg
		{
			OFFSET -1.800000 -1.400000 0.085000
			CHANNELS 3 Zrotation Yrotation Xrotation
			JOINT RightLeg
			{
				OFFSET -2.215000 -6.000000 0.000000
				CHANNELS 3 Zrotation Yrotation Xrotation
				JOINT RightFoot
				{
					OFFSET -2.500000 -6.900000 0.000000
					CHANNELS 3 Zrotation Yrotation Xrotation
					JOINT RightToeBase
					{
						OFFSET -0.200000 -0.500000 1.950000
						CHANNELS 3 Zrotation Yrotation Xrotation
						End Site
						{
							OFFSET 0.000000 0.000000 0.000000
						}
					}
				}
			}
		}
	}
	JOINT LowerBack
	{
		OFFSET 0.000000 0.000000 0.000000
		CHANNELS 3 Zrotation Yrotation Xrotation
		JOINT Spine
		{
			OFFSET -0.087000 1.940000 -0.288900
			CHANNELS 3 Zrotation Yrotation Xrotation
			JOINT Spine1
			{
				OFFSET 0.000000 1.950000 0.060000
				CHANNELS 3 Zrotation Yrotation Xrotation
				JOINT Neck
				{
					OFFSET 0.000000 0.000000 0.000000
					CHANNELS 3 Zrotation Yrotation Xrotation
					JOINT Neck1
					{
						OFFSET 0.000000 1.600000 0.340000
						CHANNELS 3 Zrotation Yrotation Xrotation
						JOINT Head
						{
							OFFSET 0.000000 1.667000 -0.240000
							CHANNELS 3 Zrotation Yrotation Xrotation
							End Site
							{
								OFFSET 0.000000 0.000000 0.000000
							}
						}
					}
				}
				JOINT LeftShoulder
				{
					OFFSET 0.000000 0.000000 0.000000
					CHANNELS 3 Zrotation Yrotation Xrotation
					JOINT LeftArm
					{
						OFFSET 2.700000 1.550000 -0.730000
						CHANNELS 3 Zrotation Yrotation Xrotation
						JOINT LeftForeArm
						{
							OFFSET 5.450000 0.000000 0.000000
							CHANNELS 3 Zrotation Yrotation Xrotation
							JOINT LeftHand
							{
								OFFSET 3.450000 0.000000 0.000000
								CHANNELS 3 Zrotation Yrotation Xrotation
								JOINT LeftHandIndex1
								{
									OFFSET 0.750000 0.000000 0.000000
									CHANNELS 3 Zrotation Yrotation Xrotation
									End Site
									{
										OFFSET 0.000000 0.000000 0.000000
									}
								}
							}
						}
					}
				}
				JOINT RightShoulder
				{
					OFFSET 0.000000 0.000000 0.000000
					CHANNELS 3 Zrotation Yrotation Xrotation
					JOINT RightArm
					{
						OFFSET -2.700000 1.550000 -0.730000
						CHANNELS 3 Zrotation Yrotation Xrotation
						JOINT RightForeArm
						{
							OFFSET -5.450000 0.000000 0.000000
							CHANNELS 3 Zrotation Yrotation Xrotation
							JOINT RightHand
							{
								OFFSET -3.450000 0.000000 0.000000
								CHANNELS 3 Zrotation Yrotation Xrotation
								JOINT RightHandIndex1
								{
									OFFSET -0.750000 0.000000 0.000000
									CHANNELS 3 Zrotation Yrotation Xrotation
									End Site
									{
										OFFSET 0.000000 0.000000 0.000000
									}
								}
							}
						}
					}
				}
			}
		}
	}
}
MOTION
Frames: 4
Frame Time: 0.016667
-1.271990 18.128190 0.165610 -8.344912 -16.547666 -5.063067 -15.318697 12.542444 4.607494 28.195340 -1.529251 -19.485040 -23.119233 13.219103 22.504136 0.270571 8.435367 1.377920 -0.263170 -0.386830 -0.269560 18.224803 -9.380103 2.775906 -8.435012 7.543079 -21.035565 14.792090 -12.068483 38.136189 -0.829036 -6.224884 2.129281 -0.351570 0.257950 0.053850 -3.261713 -3.239307 -8.680031 1.715162 -4.119521 51.024482 -5.903554 -1.986277 -2.739890 3.585232 -10.592187 -13.421714 -26.645689 15.359969 33.665359 -0.665900 7.521230 -20.382550 -12.610159 -0.632987 3.910853 -30.962528 17.027434 -14.718836 -97.518836 -28.014542 15.796489 -3.431184 3.219537 0.815190 -0.201080 0.180840 -0.013410 6.919815 8.680173 8.700383 47.211668 -14.609788 -20.509938 90.684084 32.112234 16.129937 2.307980 -1.344021 -0.315760 0.422720 0.429720 -0.035710 
-1.273180 18.165280 0.174660 -9.193435 -16.185612 -6.340841 -15.246054 12.717957 4.174527 27.127090 -1.322863 -18.828923 -19.401675 12.671658 24.231779 0.176450 8.035635 1.503932 -0.202530 -0.311280 -0.244020 18.268998 -9.461136 3.026226 -7.992967 8.460614 -22.373073 14.348869 -13.452950 43.494353 -1.060465 -7.112039 1.829507 -0.316750 0.222510 0.056630 -3.404017 -3.097391 -8.598148 1.416360 -4.580589 52.924089 -6.340821 -2.880929 -3.216304 3.458566 -10.769770 -13.492766 -27.277390 15.959651 33.361275 -0.273870 7.485060 -21.543000 -12.166052 -0.915987 4.150162 -30.468366 17.171522 -14.755657 -98.480322 -28.327288 16.347250 -3.380950 3.255624 0.825830 -0.233400 0.211930 0.009590 6.813481 8.708376 8.475220 47.612793 -13.869461 -20.317551 90.802002 31.476590 15.746569 2.311854 -1.372276 -0.289530 0.415730 0.391930 -0.027590 
-1.264160 18.209880 0.173870 -10.209717 -15.640127 -7.622269 -15.203873 12.897535 3.712628 26.023599 -0.998734 -18.452638 -15.395262 12.004021 26.157234 0.054250 7.654470 1.619821 -0.169230 -0.273270 -0.223090 18.302108 -9.426152 3.356002 -7.755096 9.709547 -24.158511 14.385389 -15.552567 49.867703 -1.365907 -8.307663 1.444243 -0.290660 0.198210 0.054320 -3.499257 -3.100065 -8.553812 1.445565 -4.979977 55.045796 -6.574790 -3.520200 -3.545815 3.539967 -10.857584 -13.696433 -27.874397 16.727694 33.386471 -0.323800 7.597600 -22.626320 -11.783614 -1.500390 4.427500 -30.609793 17.133244 -14.925990 -99.667682 -28.891135 17.159002 -3.358638 3.256788 0.850100 -0.255880 0.231410 0.009520 6.365796 9.099983 8.428176 47.647026 -13.114789 -20.147894 91.102911 31.121796 15.603450 2.304313 -1.372177 -0.287790 0.425170 0.385210 -0.034880 
-1.260990 18.262220 0.168650 -11.116702 -15.187841 -9.001977 -15.180159 13.106385 3.196103 24.563400 -0.559124 -18.042555 -11.008522 11.082683 28.020598 -0.058278 7.224541 1.764302 -0.139870 -0.242850 -0.199210 18.325483 -9.322302 3.764226 -7.495623 11.244638 -26.279665 14.526336 -18.225738 57.088172 -1.750249 -9.745281 1.008903 -0.268390 0.181000 0.060110 -3.555619 -3.200930 -8.525378 1.348239 -5.017903 57.228345 -6.595335 -3.827772 -3.805275 3.717704 -10.859183 -13.949755 -28.382261 17.504134 33.720819 -0.684550 7.722220 -23.211370 -11.526310 -2.141030 4.703580 -30.992321 17.191106 -15.144333 -101.042985 -29.894499 18.565212 -3.347597 3.256421 0.868450 -0.270340 0.251790 0.010600 5.851423 9.669104 8.471707 47.328124 -12.476457 -19.951748 91.537205 30.921206 15.587926 2.297775 -1.373451 -0.284410 0.435480 0.380300 -0.039930 
